<svg width="337" height="236" viewBox="0 0 337 236" fill="none" xmlns="http://www.w3.org/2000/svg">
<path d="M75.5421 227.187C75.4865 227.187 75.4308 227.177 75.377 227.151C75.1777 227.06 75.0916 226.825 75.1831 226.627L126.276 115.545C126.367 115.346 126.601 115.26 126.8 115.352C126.999 115.443 127.085 115.676 126.994 115.876L75.9011 226.958C75.8347 227.103 75.6911 227.187 75.5421 227.187Z" fill="black"/>
<path d="M73.822 235.092C75.8177 235.092 77.4355 233.472 77.4355 231.475C77.4355 229.477 75.8177 227.857 73.822 227.857C71.8264 227.857 70.2086 229.477 70.2086 231.475C70.2086 233.472 71.8264 235.092 73.822 235.092Z" fill="black"/>
<path d="M82.0722 115.349L266.272 115.349V110.406L82.0722 110.406V115.349Z" fill="white"/>
<path d="M266.265 115.744H82.0651C81.8461 115.744 81.6702 115.568 81.6702 115.349V110.405C81.6702 110.186 81.8461 110.01 82.0651 110.01H266.265C266.484 110.01 266.66 110.186 266.66 110.405V115.349C266.66 115.568 266.482 115.744 266.265 115.744ZM82.46 114.954H265.87V110.8H82.46V114.954Z" fill="black"/>
<path d="M338.233 70.9051C330.96 50.9566 299.01 61.7611 276.968 28.3981C273.992 23.8925 272.127 18.5414 268.084 14.9638C264.462 11.7561 259.032 9.87664 254.196 9.83894C248.961 9.79945 243.883 11.6268 240.798 15.3552C236.486 20.5644 248.775 38.086 248.775 38.086C248.775 38.086 249.947 61.4433 259.561 74.4432C262.193 79.7871 257.901 91.674 261.949 96.0557C269.693 104.439 277.946 105.683 289.174 107.713C312.212 111.879 348.144 98.0787 338.235 70.9033L338.233 70.9051Z" fill="black"/>
<path d="M264.446 49.7032L259.447 37.6368C259.095 36.7878 255.347 34.1741 254.53 34.5942L248.416 41.4029C247.718 41.7619 247.393 42.584 247.653 43.3254L251.089 53.0582C251.674 54.715 253.123 55.9159 254.857 56.1762C257.065 56.5065 260.238 56.2534 263.512 53.5375C264.631 52.6094 265.001 51.0495 264.444 49.705L264.446 49.7032Z" fill="white"/>
<path d="M265.063 51.358C264.911 51.358 264.765 51.2682 264.701 51.1192L258.556 36.8485C258.47 36.6474 258.563 36.4159 258.763 36.3297C258.962 36.2453 259.195 36.3351 259.282 36.5361L265.426 50.8069C265.512 51.0079 265.419 51.2395 265.22 51.3257C265.169 51.3472 265.115 51.358 265.063 51.358Z" fill="black"/>
<path d="M251.591 54.6828C251.432 54.6828 251.281 54.5841 251.222 54.4261L246.714 42.3202C246.639 42.1156 246.743 41.8876 246.948 41.8122C247.15 41.7368 247.38 41.8391 247.456 42.0456L251.963 54.1515C252.038 54.3561 251.934 54.5841 251.73 54.6595C251.685 54.6756 251.638 54.6846 251.591 54.6846V54.6828Z" fill="black"/>
<path d="M256.22 34.5499C256.22 34.5499 257.498 33.3508 258.927 34.2501C260.334 35.1333 260.736 37.2119 259.991 38.6982C259.246 40.1846 257.464 41.0318 255.819 40.7877C254.891 40.6495 254.044 40.4269 253.331 39.5958C251.667 40.8864 249.714 41.8522 247.63 42.143C245.544 42.4338 243.324 42.003 241.629 40.7536C238.793 38.6623 237.924 34.6612 238.614 31.2039C239.303 27.7466 241.096 24.5783 243.214 21.7619C244.024 20.6848 244.704 19.7029 246.862 18.1035C245.905 21.471 252.003 33.209 256.218 34.5499H256.22Z" fill="white"/>
<path d="M246.378 42.6241C244.534 42.6241 242.771 42.082 241.4 41.0714C238.671 39.0591 237.427 35.1567 238.232 31.1267C238.849 28.0267 240.379 24.8853 242.904 21.525L243.032 21.3562C243.809 20.3187 244.543 19.3368 246.633 17.7877C246.769 17.6871 246.954 17.6835 247.092 17.7805C247.232 17.8774 247.293 18.0515 247.248 18.2131C246.367 21.3185 252.208 32.5395 256.145 34.1048C256.755 33.647 257.947 33.1677 259.142 33.9163C260.665 34.873 261.217 37.1438 260.349 38.876C259.543 40.4862 257.615 41.4555 255.766 41.1791C254.971 41.0606 254.073 40.8703 253.294 40.1254C251.515 41.4394 249.585 42.2705 247.69 42.5344C247.252 42.5954 246.812 42.6259 246.379 42.6259L246.378 42.6241ZM246.376 18.9796C244.92 20.1482 244.306 20.9685 243.664 21.8265L243.536 21.9971C241.082 25.2605 239.601 28.2977 239.007 31.2793C238.399 34.3363 239.047 38.3519 241.87 40.4341C243.4 41.5614 245.48 42.0407 247.582 41.7499C249.442 41.4914 251.348 40.637 253.097 39.2817C253.264 39.1525 253.502 39.1776 253.639 39.3374C254.233 40.032 254.911 40.251 255.884 40.3946C257.403 40.6208 258.986 39.8328 259.643 38.5188C260.325 37.1582 259.894 35.3182 258.722 34.5822C257.566 33.8552 256.505 34.8264 256.495 34.8371C256.391 34.9359 256.24 34.9682 256.105 34.9251C252.038 33.6327 246.428 23.3864 246.378 18.9796H246.376Z" fill="black"/>
<path d="M254.933 38.3319C254.813 38.3319 254.693 38.2762 254.615 38.1721C254.486 37.9962 254.522 37.7485 254.698 37.6193C255.576 36.9676 256.703 36.6517 257.793 36.754C258.01 36.7738 258.17 36.9676 258.15 37.1848C258.13 37.402 257.936 37.5618 257.719 37.5421C256.823 37.4577 255.892 37.718 255.168 38.2547C255.098 38.3068 255.016 38.3319 254.933 38.3319Z" fill="black"/>
<path d="M248.983 147.895L279.387 228.696C280.543 232.052 278.05 235.547 274.5 235.547H241.074L211.502 152.756L248.983 147.895Z" fill="white"/>
<path d="M274.497 235.942H241.072C240.905 235.942 240.756 235.836 240.7 235.68L211.126 152.888C211.085 152.775 211.1 152.651 211.162 152.549C211.225 152.447 211.329 152.379 211.448 152.364L248.929 147.503C249.115 147.485 249.284 147.584 249.349 147.756L279.753 228.557C280.349 230.29 280.084 232.128 279.026 233.612C277.969 235.095 276.318 235.946 274.497 235.946V235.942ZM241.35 235.152H274.497C276.059 235.152 277.475 234.424 278.384 233.151C279.292 231.878 279.52 230.302 279.012 228.825L248.72 148.329L212.037 153.088L241.35 235.154V235.152Z" fill="black"/>
<path d="M245.899 224.937C245.108 224.937 244.316 224.896 243.523 224.806C243.305 224.781 243.149 224.585 243.174 224.368C243.2 224.151 243.392 223.997 243.612 224.02C247.868 224.503 252.144 223.519 256.513 222.381C262.028 220.945 267.575 219.342 272.999 217.621C273.208 217.554 273.43 217.671 273.497 217.877C273.563 218.086 273.448 218.308 273.24 218.375C267.801 220.101 262.241 221.706 256.715 223.146C253.074 224.095 249.493 224.936 245.903 224.936L245.899 224.937Z" fill="black"/>
<path d="M312.998 119.992L319.098 135.799C323.347 146.809 315.179 158.64 303.38 158.57C275.428 158.401 233.608 158.232 233.608 158.74C233.608 159.385 253.282 215.071 258.904 231.026C259.692 233.264 258.032 235.607 255.66 235.607H200.188C198.335 235.607 197.569 233.232 199.071 232.149L212.789 222.264C212.789 222.264 196.289 187.535 185.606 157.22C179.2 139.041 192.727 119.994 211.999 119.994H312.996L312.998 119.992Z" fill="white"/>
<path d="M255.653 235.999H200.181C199.161 235.999 198.301 235.373 197.989 234.404C197.676 233.434 198.009 232.422 198.834 231.826L212.285 222.133C210.649 218.665 195.271 185.856 185.226 157.349C182.133 148.575 183.447 139.183 188.827 131.583C194.219 123.964 202.663 119.597 211.992 119.597H312.989C313.153 119.597 313.3 119.697 313.357 119.85L319.457 135.657C321.5 140.951 320.794 146.898 317.57 151.565C314.368 156.204 309.103 158.964 303.472 158.964C303.438 158.964 303.402 158.964 303.368 158.964C262.374 158.717 237.41 158.747 234.093 159.042C235.462 163.402 249.661 203.656 256.633 223.422L259.269 230.893C259.687 232.081 259.511 233.352 258.782 234.38C258.053 235.409 256.913 235.999 255.651 235.999H255.653ZM211.992 120.387C202.922 120.387 194.715 124.634 189.471 132.039C184.242 139.427 182.966 148.557 185.971 157.085C196.524 187.032 212.974 221.743 213.139 222.09C213.222 222.262 213.168 222.468 213.013 222.58L199.296 232.465C198.637 232.941 198.576 233.652 198.741 234.158C198.906 234.664 199.369 235.206 200.181 235.206H255.653C256.655 235.206 257.561 234.738 258.139 233.921C258.717 233.104 258.857 232.095 258.525 231.153L255.892 223.684C239.144 176.201 233.208 159.205 233.208 158.736C233.208 158.631 233.255 158.521 233.33 158.447C233.574 158.205 234.03 157.755 303.379 158.171C303.413 158.171 303.449 158.171 303.484 158.171C308.933 158.171 313.828 155.602 316.928 151.113C320.048 146.593 320.704 141.062 318.726 135.939L312.724 120.385H211.997L211.992 120.387Z" fill="black"/>
<path d="M228.695 228C223.037 228 218.289 226.745 214.542 224.252C214.124 223.974 213.684 223.658 213.307 223.249C213.16 223.087 213.171 222.838 213.333 222.69C213.492 222.543 213.744 222.554 213.891 222.716C214.21 223.064 214.603 223.344 214.98 223.595C219.454 226.571 225.438 227.72 232.768 227.006C236.16 226.675 239.573 226 242.874 225.347C245.602 224.807 248.422 224.25 251.23 223.886C251.445 223.857 251.644 224.01 251.673 224.227C251.702 224.444 251.549 224.642 251.332 224.67C248.55 225.031 245.742 225.588 243.026 226.124C239.707 226.781 236.275 227.46 232.843 227.794C231.411 227.934 230.027 228.004 228.695 228.004V228Z" fill="black"/>
<path d="M231.194 159.239H217.159C216.94 159.239 216.764 159.063 216.764 158.844C216.764 158.625 216.94 158.449 217.159 158.449H231.194C231.413 158.449 231.589 158.625 231.589 158.844C231.589 159.063 231.413 159.239 231.194 159.239Z" fill="black"/>
<path d="M265.942 188.533C258.108 191.441 246.729 194.692 232.706 195.496C217.29 196.379 204.597 193.968 196.137 191.665C194.179 187.434 191.396 180.967 188.738 172.828C183.137 155.692 180.369 146.805 183.837 137.092C184.397 135.525 188.095 125.586 197.521 120.77C203.834 117.544 211.666 117.151 217.471 116.86C220.042 116.731 221.979 116.767 222.516 116.776C231.22 116.926 261.985 116.919 312.333 116.776C314.001 119.265 327.43 139.749 320.004 150.327C317.508 153.879 313.084 155.712 289.206 157.577C274.912 158.694 262.942 159.096 254.329 159.243C258.201 169.006 262.075 178.768 265.947 188.531L265.942 188.533Z" fill="#D1E1A9"/>
<path d="M253.207 159.405H253.195C252.66 159.389 252.055 159.374 251.398 159.358C247.548 159.265 241.73 159.127 237.33 158.441C237.115 158.407 236.967 158.206 237 157.988C237.034 157.773 237.231 157.628 237.452 157.658C241.8 158.335 247.587 158.475 251.416 158.566C252.075 158.583 252.681 158.597 253.218 158.613C253.437 158.62 253.608 158.802 253.602 159.021C253.595 159.234 253.419 159.405 253.207 159.405Z" fill="black"/>
<path d="M318.733 163.909H263.661C260.663 163.909 258.234 161.48 258.234 158.482C258.234 155.485 260.663 153.056 263.661 153.056H318.733C321.731 153.056 324.16 155.485 324.16 158.482C324.16 161.48 321.731 163.909 318.733 163.909Z" fill="black"/>
<path d="M240.175 228.358C240.119 228.358 240.064 228.348 240.01 228.323C239.811 228.231 239.724 227.996 239.816 227.798L270.549 161.019C270.641 160.819 270.874 160.733 271.073 160.825C271.273 160.916 271.359 161.151 271.267 161.349L240.534 228.129C240.468 228.274 240.324 228.358 240.175 228.358Z" fill="black"/>
<path d="M238.554 235.796C240.438 235.796 241.966 234.268 241.966 232.384C241.966 230.499 240.438 228.971 238.554 228.971C236.669 228.971 235.141 230.499 235.141 232.384C235.141 234.268 236.669 235.796 238.554 235.796Z" fill="black"/>
<path d="M343.145 228.359C342.996 228.359 342.852 228.273 342.786 228.13L312.508 162.342C312.417 162.143 312.503 161.91 312.702 161.818C312.902 161.727 313.137 161.815 313.226 162.012L343.504 227.799C343.595 227.999 343.509 228.232 343.31 228.324C343.256 228.349 343.2 228.359 343.145 228.359Z" fill="black"/>
<path d="M209.505 45.0959C209.505 45.0959 193.249 19.2362 191.69 17.4071C190.131 15.5797 187.305 16.436 190.251 21.8678L192.514 26.9012C192.514 26.9012 189.348 25.6482 189.111 29.127C189.111 29.127 186.847 28.0374 186.758 31.2129C186.758 31.2129 184.087 30.2292 184.306 33.2826C184.517 36.2265 192.69 56.7566 192.69 56.7566C192.69 56.7566 205.39 52.3982 209.505 45.0959Z" fill="white"/>
<path d="M192.689 57.154C192.531 57.154 192.384 57.0607 192.321 56.9045C191.987 56.0644 184.123 36.2828 183.908 33.312C183.831 32.2296 184.082 31.4631 184.656 31.0305C185.211 30.6122 185.922 30.6338 186.39 30.7164C186.495 29.774 186.823 29.1295 187.372 28.7956C187.855 28.503 188.388 28.5264 188.767 28.6072C188.916 27.6953 189.297 27.0401 189.905 26.6559C190.532 26.2592 191.264 26.2484 191.815 26.3256L189.884 22.0319C187.721 18.045 188.731 16.758 189.266 16.39C190.022 15.8712 191.165 16.1907 191.986 17.1529C193.546 18.982 209.17 43.8293 209.834 44.8866C209.951 45.0715 209.895 45.3156 209.71 45.4323C209.525 45.5489 209.281 45.4933 209.164 45.3084C209.001 45.0499 192.907 19.4524 191.384 17.6663C190.851 17.0398 190.117 16.7669 189.715 17.0434C189.272 17.3468 188.957 18.6661 190.593 21.6818L192.871 26.7421C192.937 26.8893 192.907 27.0616 192.795 27.1765C192.684 27.2932 192.513 27.3309 192.364 27.2716C192.354 27.268 191.147 26.8067 190.325 27.3273C189.839 27.636 189.561 28.2517 189.5 29.1565C189.491 29.2875 189.417 29.406 189.304 29.4706C189.189 29.537 189.051 29.5406 188.934 29.485C188.929 29.4814 188.265 29.1762 187.78 29.4724C187.392 29.7111 187.173 30.3179 187.148 31.2244C187.144 31.3518 187.08 31.4685 186.974 31.5403C186.868 31.6121 186.735 31.6283 186.615 31.5834C186.356 31.49 185.581 31.3195 185.129 31.6624C184.784 31.9226 184.639 32.4594 184.694 33.2528C184.899 36.1033 192.971 56.4037 193.052 56.6083C193.133 56.8112 193.034 57.0409 192.831 57.1217C192.783 57.1414 192.734 57.1504 192.684 57.1504L192.689 57.154Z" fill="black"/>
<path d="M200.466 39.4289C199.547 39.4289 198.592 38.9622 197.847 38.1311C197.211 37.422 196.799 36.5694 196.398 35.7455L196.258 35.4582C195.865 34.6541 195.382 33.744 194.648 33.1462C194.386 32.9326 194.092 32.7567 193.779 32.57C193.562 32.4408 193.345 32.3097 193.137 32.1661C192.438 31.685 192.008 31.1375 191.855 30.538C191.727 30.0336 191.866 29.5525 192.209 29.312C192.641 29.0086 193.167 29.1935 193.418 29.2832L199.875 31.5504C200.082 31.6222 200.189 31.8484 200.118 32.0548C200.046 32.2612 199.82 32.3689 199.613 32.2971L193.156 30.03C193.058 29.9959 192.76 29.8918 192.661 29.96C192.603 29.9995 192.573 30.1574 192.62 30.3423C192.724 30.7516 193.047 31.1465 193.582 31.5145C193.776 31.6473 193.978 31.7694 194.181 31.8897C194.503 32.0817 194.837 32.281 195.143 32.5305C196.003 33.2288 196.535 34.2268 196.965 35.1082L197.107 35.399C197.482 36.1745 197.87 36.9751 198.432 37.6015C198.951 38.1796 199.827 38.7504 200.733 38.6176C200.952 38.5906 201.15 38.7342 201.182 38.9514C201.214 39.1668 201.065 39.3679 200.848 39.4002C200.721 39.4199 200.591 39.4289 200.462 39.4289H200.466Z" fill="black"/>
<path d="M193.535 36.3219C193.248 36.3219 192.952 36.2608 192.674 36.137C192.058 35.8641 191.615 35.3543 191.333 34.9953C190.001 33.2936 189.401 31.1323 188.872 29.226C188.814 29.016 188.936 28.7988 189.146 28.7395C189.356 28.6821 189.574 28.8042 189.633 29.0142C190.143 30.8487 190.719 32.9292 191.954 34.5071C192.318 34.972 192.647 35.261 192.993 35.4136C193.385 35.5877 193.832 35.5661 194.104 35.3615C194.418 35.1264 194.514 34.6776 194.499 34.3365C194.478 33.886 194.302 33.4318 194.131 32.992C194.052 32.7892 194.153 32.5594 194.356 32.4804C194.559 32.3997 194.788 32.502 194.867 32.7048C195.052 33.1805 195.262 33.719 195.289 34.2988C195.321 35.0025 195.056 35.6362 194.58 35.9934C194.291 36.2106 193.923 36.3201 193.535 36.3201V36.3219Z" fill="black"/>
<path d="M191.061 37.5964C190.752 37.5964 190.431 37.5317 190.126 37.4025C189.467 37.1225 188.971 36.6001 188.657 36.2303C187.435 34.7961 186.668 32.9723 186.505 31.0946C186.485 30.8774 186.647 30.6854 186.864 30.6656C187.085 30.6459 187.273 30.8074 187.293 31.0246C187.444 32.7407 188.142 34.4065 189.26 35.7151C189.523 36.0239 189.932 36.4583 190.438 36.6737C190.89 36.8658 191.377 36.8478 191.704 36.627C192.023 36.4134 192.161 35.9431 191.991 35.6613C191.878 35.4746 191.937 35.2323 192.124 35.1174C192.31 35.0061 192.554 35.0635 192.666 35.2502C193.059 35.8982 192.82 36.8299 192.145 37.2822C191.838 37.4887 191.459 37.5946 191.064 37.5946L191.061 37.5964Z" fill="black"/>
<path d="M187.364 39.2208C187.056 39.2208 186.742 39.1508 186.449 39.009C185.934 38.7577 185.494 38.2999 185.18 37.6878C184.923 37.1906 184.78 36.6664 184.631 36.083C184.577 35.8712 184.704 35.6558 184.916 35.6019C185.126 35.5481 185.343 35.6755 185.397 35.8874C185.539 36.4438 185.666 36.9016 185.883 37.327C186.049 37.6465 186.341 38.0755 186.797 38.2999C187.181 38.4866 187.637 38.474 187.935 38.2694C188.203 38.0845 188.389 37.7201 188.432 37.2911C188.477 36.8549 188.388 36.3918 188.303 35.9412C188.262 35.7276 188.404 35.5194 188.617 35.4799C188.831 35.4404 189.039 35.5804 189.079 35.794C189.17 36.2751 189.274 36.8208 189.219 37.3701C189.152 38.0342 188.847 38.5997 188.382 38.9192C188.091 39.1185 187.732 39.2208 187.363 39.2208H187.364Z" fill="black"/>
<path d="M249.939 59.3304C235.41 57.3809 217.867 55.1604 217.867 55.1604L209.509 45.0955C209.509 45.0955 206.632 49.7358 202.306 52.2722C200.017 53.6149 192.695 56.7562 192.695 56.7562C195.26 62.7679 199.568 69.5568 202.656 74.2132C204.883 77.5754 208.246 79.0114 212.238 79.5733L240.282 84.6515L249.939 59.3286V59.3304Z" fill="white"/>
<path d="M236.135 84.2051C236.111 84.2051 236.086 84.2033 236.063 84.1979L211.864 79.7085C207.741 79.1287 203.608 76.551 201.35 73.1457C198.701 69.1463 195.281 63.6876 192.335 56.9148C192.289 56.8071 192.292 56.685 192.344 56.5809C192.396 56.4768 192.493 56.3996 192.606 56.3727C192.644 56.3637 196.482 55.4141 202.44 51.4865C207.102 48.4116 209.15 44.9328 209.169 44.8987C209.234 44.7874 209.349 44.7138 209.478 44.703C209.607 44.694 209.733 44.7443 209.816 44.8448L218.073 54.7894C219.683 54.9887 233.396 56.6922 246.74 58.6722C246.955 58.7045 247.104 58.9055 247.074 59.1209C247.042 59.3363 246.844 59.4835 246.625 59.4548C232.503 57.3582 217.967 55.5721 217.822 55.5559C217.721 55.5434 217.63 55.4931 217.565 55.4159L209.554 45.7675C208.821 46.8517 206.728 49.6071 202.874 52.1489C197.905 55.4249 194.437 56.6563 193.242 57.0189C196.121 63.544 199.431 68.8214 202.009 72.7113C204.147 75.9371 208.065 78.3783 211.991 78.9312L236.208 83.4243C236.424 83.4637 236.564 83.6702 236.524 83.8856C236.488 84.0759 236.323 84.2087 236.137 84.2087L236.135 84.2051Z" fill="black"/>
<path d="M296.365 80.8393C283.456 54.9258 272.83 49.9463 264.655 49.9553C253.805 49.966 243.511 57.6704 238.565 78.3549C237.864 81.2881 236.539 83.1818 235.004 85.0164C233.318 87.0322 230.209 87.8364 227.366 87.6174C223.722 87.3356 217.624 86.4147 210.728 84.6071L209.823 106.58C218.096 109.508 227.249 109.679 235.455 110.81C246.898 112.387 255.877 103.143 255.877 103.143L262.716 116.776H311.838C311.838 116.776 305.875 99.9262 296.366 80.8393H296.365Z" fill="white"/>
<path d="M311.834 116.355C311.681 116.355 311.536 116.265 311.471 116.116L311.2 115.486C305.237 101.661 300.273 90.4057 295.578 80.0626C293.099 74.6002 289.641 67.5474 284.875 61.428C281.756 57.4232 278.65 54.6086 275.383 52.8261C269.502 49.6183 261.525 49.647 255.061 52.8979C246.547 57.1791 242.699 66.4255 240.056 74.9071L239.782 75.7957C239.213 77.6428 238.624 79.5545 237.782 81.3586C236.235 84.6687 234.443 87.0184 230.736 87.7292C228.098 88.2355 224.502 88.0524 221.118 87.241C220.235 87.0292 219.426 86.8299 218.659 86.6396C215.952 85.9719 213.813 85.4441 210.689 84.9236C210.474 84.8877 210.328 84.683 210.364 84.4694C210.4 84.254 210.605 84.105 210.818 84.1445C213.972 84.6705 216.123 85.2 218.848 85.8732C219.612 86.0616 220.418 86.2609 221.302 86.4727C224.581 87.2607 228.053 87.442 230.586 86.9538C233.966 86.3058 235.619 84.114 237.064 81.0247C237.884 79.2709 238.464 77.3879 239.024 75.5641L239.299 74.6738C241.991 66.0342 245.926 56.6065 254.704 52.1942C261.392 48.8303 269.657 48.807 275.758 52.135C279.124 53.9696 282.308 56.8524 285.496 60.9452C290.313 67.1291 293.797 74.2376 296.296 79.7394C300.993 90.0862 305.958 101.347 311.923 115.176L312.194 115.806C312.281 116.007 312.187 116.238 311.988 116.325C311.938 116.346 311.884 116.357 311.832 116.357L311.834 116.355Z" fill="black"/>
<path d="M262.711 117.174C262.576 117.174 262.445 117.104 262.371 116.98C260.108 113.173 257.049 106.601 255.898 104.127C255.845 104.012 255.796 103.908 255.753 103.815C252.757 106.687 248.908 108.974 244.855 110.284C236.919 112.848 214.343 108.495 209.695 106.956C209.489 106.888 209.376 106.664 209.444 106.457C209.512 106.251 209.735 106.138 209.943 106.206C214.388 107.676 236.975 111.997 244.611 109.532C248.731 108.202 252.63 105.834 255.593 102.865C255.683 102.776 255.809 102.734 255.936 102.754C256.062 102.774 256.169 102.853 256.227 102.968C256.272 103.057 256.408 103.348 256.616 103.795C257.654 106.023 260.81 112.803 263.053 116.578C263.165 116.766 263.104 117.009 262.915 117.12C262.852 117.158 262.782 117.176 262.714 117.176L262.711 117.174Z" fill="black"/>
<path d="M257.001 102.857C256.909 102.857 256.819 102.827 256.744 102.762C256.579 102.62 256.559 102.371 256.699 102.204C263.483 94.2627 268.092 84.6394 270.029 74.3734C270.07 74.1598 270.279 74.018 270.491 74.0593C270.706 74.1006 270.846 74.307 270.805 74.5206C268.841 84.9212 264.172 94.672 257.299 102.717C257.22 102.809 257.11 102.856 256.997 102.856L257.001 102.857Z" fill="black"/>
<path d="M208.096 76.5936H185.519L189.337 107.345H204.278L208.096 76.5936Z" fill="black"/>
<path d="M206.669 72.7328L204.283 69.5161H189.343L186.957 72.7328H183.369V76.594H210.257V72.7328H206.669Z" fill="white"/>
<path d="M210.254 76.9906H183.366C183.147 76.9906 182.971 76.8147 182.971 76.5957V72.7327C182.971 72.5137 183.148 72.3378 183.366 72.3378H186.755L189.022 69.2808C189.097 69.1803 189.214 69.121 189.34 69.121H204.28C204.405 69.121 204.522 69.1803 204.598 69.2808L206.865 72.3378H210.256C210.475 72.3378 210.65 72.5137 210.65 72.7327V76.5957C210.65 76.8147 210.473 76.9906 210.256 76.9906H210.254ZM183.76 76.2008H209.859V73.1294H206.665C206.54 73.1294 206.423 73.0702 206.348 72.9696L204.081 69.9126H189.539L187.272 72.9696C187.198 73.0702 187.08 73.1294 186.954 73.1294H183.76V76.2008Z" fill="black"/>
<path d="M211.329 84.6716C197.242 81.672 183.849 84.8744 183.364 86.8508C182.802 89.1431 184.515 89.7678 184.515 89.7678C184.515 89.7678 182.696 91.6059 185.091 94.0113C185.091 94.0113 183.971 96.6087 185.886 98.0448C185.886 98.0448 185.701 101.662 189.069 101.671C191.67 101.678 201.467 104.692 211.8 107.043C214.209 99.4754 213.035 92.4298 211.329 84.6734V84.6716Z" fill="white"/>
<path d="M211.795 107.438C211.767 107.438 211.736 107.435 211.707 107.428C207.43 106.455 203.283 105.378 199.627 104.428C194.55 103.111 190.54 102.069 189.064 102.066C188.002 102.062 187.147 101.73 186.526 101.075C185.616 100.115 185.496 98.7521 185.485 98.2334C184.076 97.0379 184.263 95.1477 184.627 94.1029C182.884 92.2145 183.48 90.6187 183.923 89.8989C183.265 89.4394 182.563 88.4377 182.976 86.7558C183.597 84.2247 197.749 81.3778 211.408 84.284C211.56 84.3163 211.679 84.4347 211.711 84.5855C213.42 92.3617 214.633 99.4271 212.17 107.162C212.117 107.329 211.962 107.437 211.794 107.437L211.795 107.438ZM199.391 83.8262C190.475 83.8262 184.002 85.8869 183.744 86.946C183.286 88.8165 184.509 89.3442 184.649 89.3981C184.772 89.4466 184.868 89.5543 184.895 89.6853C184.923 89.8163 184.884 89.9528 184.79 90.0461C184.729 90.1089 183.29 91.6473 185.367 93.7332C185.48 93.848 185.514 94.0204 185.449 94.1694C185.41 94.2627 184.48 96.5011 186.119 97.729C186.225 97.8079 186.284 97.9336 186.277 98.0646C186.277 98.079 186.216 99.6012 187.102 100.535C187.567 101.023 188.228 101.272 189.064 101.276C190.641 101.28 194.692 102.331 199.824 103.665C203.375 104.588 207.385 105.629 211.526 106.577C213.759 99.244 212.623 92.4533 210.993 85.0074C206.898 84.1547 202.949 83.8262 199.391 83.8262Z" fill="black"/>
<path d="M185.585 89.8102C185.378 89.8102 185.204 89.6504 185.19 89.4404C185.176 89.2214 185.341 89.0347 185.558 89.0203L186.762 88.9396C186.976 88.9324 187.168 89.0904 187.182 89.3076C187.197 89.5266 187.032 89.7132 186.814 89.7276L185.61 89.8084C185.61 89.8084 185.592 89.8084 185.583 89.8084L185.585 89.8102Z" fill="black"/>
<path d="M186.069 94.0362C185.857 94.0362 185.681 93.8675 185.674 93.6539C185.667 93.4349 185.837 93.2536 186.056 93.2464L187.421 93.2015C187.625 93.18 187.821 93.3649 187.828 93.5839C187.835 93.8029 187.665 93.9842 187.446 93.9914L186.082 94.0362C186.082 94.0362 186.073 94.0362 186.067 94.0362H186.069Z" fill="black"/>
<path d="M187.357 98.4036C187.159 98.4036 186.989 98.2564 186.965 98.0553C186.94 97.8381 187.095 97.6425 187.312 97.6155L188.676 97.4558C188.897 97.4289 189.089 97.585 189.116 97.8022C189.141 98.0194 188.987 98.2151 188.769 98.242L187.405 98.4018C187.389 98.4036 187.375 98.4054 187.358 98.4054L187.357 98.4036Z" fill="black"/>
<path d="M106.358 235.578H60.7095C54.5991 235.578 50.3951 228.316 52.5994 221.572L78.2544 143.075H125.579L99.9962 221.354L107.912 231.322C109.192 232.934 108.227 235.578 106.358 235.578Z" fill="white"/>
<path d="M106.362 235.975H60.7136C58.0461 235.975 55.5276 234.613 53.8044 232.236C51.6359 229.245 51.031 225.111 52.2283 221.449L77.8833 142.953C77.9354 142.79 78.0879 142.68 78.2585 142.68H125.583C125.711 142.68 125.829 142.741 125.903 142.844C125.978 142.946 125.998 143.079 125.959 143.199L100.442 221.275L108.227 231.076C108.977 232.022 109.112 233.36 108.568 234.485C108.118 235.417 107.294 235.973 106.364 235.973L106.362 235.975ZM78.5457 143.472L52.9804 221.695C51.8603 225.122 52.4222 228.981 54.4452 231.771C56.041 233.972 58.2669 235.183 60.7153 235.183H106.364C106.994 235.183 107.538 234.805 107.857 234.142C108.195 233.442 108.249 232.376 107.61 231.568L99.6933 221.6C99.6107 221.496 99.5856 221.358 99.6269 221.232L125.041 143.47H78.5493L78.5457 143.472Z" fill="black"/>
<path d="M99.9148 221.666H59.9585C59.7395 221.666 59.5636 221.49 59.5636 221.271C59.5636 221.052 59.7395 220.876 59.9585 220.876H99.9148C100.134 220.876 100.31 221.052 100.31 221.271C100.31 221.49 100.134 221.666 99.9148 221.666Z" fill="black"/>
<path d="M14.8798 117.228L10.2503 133.136C6.78763 145.032 14.2533 157.423 24.8836 157.423H91.0101L120.424 228.734C122.149 232.916 125.737 235.569 129.67 235.569H177.616C178.972 235.569 179.537 233.516 178.44 232.571L165.624 221.525L137.595 143.745C131.799 127.663 118.455 117.228 103.685 117.228H14.8834H14.8798Z" fill="white"/>
<path d="M177.617 235.963H129.671C125.607 235.963 121.834 233.184 120.061 228.884L90.7472 157.817H24.8864C20.2749 157.817 16.0583 155.582 13.0139 151.525C9.1671 146.4 7.99491 139.484 9.87434 133.024L14.5038 117.116C14.5523 116.947 14.7084 116.83 14.8826 116.83H103.684C118.648 116.83 132.105 127.342 137.966 143.609L165.96 221.29L178.698 232.269C179.472 232.937 179.54 233.981 179.265 234.721C178.982 235.488 178.348 235.963 177.614 235.963H177.617ZM15.1805 117.622L10.6337 133.244C8.82244 139.468 9.94794 146.124 13.6458 151.051C16.5376 154.904 20.5298 157.027 24.8864 157.027H91.0129C91.1727 157.027 91.318 157.124 91.3791 157.271L120.793 228.582C122.444 232.585 125.93 235.173 129.673 235.173H177.619C178.213 235.173 178.465 234.617 178.529 234.446C178.709 233.964 178.673 233.289 178.186 232.869L165.37 221.822C165.318 221.777 165.278 221.719 165.257 221.657L137.227 143.877C131.479 127.928 118.314 117.62 103.688 117.62H15.1823L15.1805 117.622Z" fill="black"/>
<path d="M165.623 221.918H125.582C125.363 221.918 125.187 221.742 125.187 221.523C125.187 221.304 125.363 221.128 125.582 221.128H165.623C165.842 221.128 166.017 221.304 166.017 221.523C166.017 221.742 165.842 221.918 165.623 221.918Z" fill="black"/>
<path d="M92.9024 227.901C92.7534 227.901 92.6098 227.815 92.5433 227.672L61.9412 161.139C61.8496 160.94 61.9358 160.707 62.135 160.615C62.3343 160.524 62.5676 160.612 62.6592 160.809L93.2614 227.341C93.3529 227.541 93.2668 227.774 93.0675 227.865C93.0137 227.891 92.958 227.901 92.9024 227.901Z" fill="black"/>
<path d="M94.6193 235.797C96.613 235.797 98.2292 234.18 98.2292 232.184C98.2292 230.188 96.613 228.57 94.6193 228.57C92.6256 228.57 91.0094 230.188 91.0094 232.184C91.0094 234.18 92.6256 235.797 94.6193 235.797Z" fill="black"/>
<path d="M-12.676 227.902C-12.7317 227.902 -12.7873 227.891 -12.8412 227.866C-13.0404 227.774 -13.1266 227.539 -13.0351 227.342L17.5671 160.81C17.6587 160.61 17.892 160.524 18.0913 160.616C18.2905 160.707 18.3767 160.942 18.2852 161.14L-12.317 227.672C-12.3834 227.817 -12.5271 227.902 -12.676 227.902Z" fill="black"/>
<path d="M10.6865 163.586H69.5555C72.5614 163.586 74.9982 161.149 74.9982 158.143V157.538C74.9982 154.532 72.5614 152.096 69.5555 152.096H10.6865C7.68064 152.096 5.2439 154.532 5.2439 157.538V158.143C5.2439 161.149 7.68064 163.586 10.6865 163.586Z" fill="white"/>
<path d="M69.5558 163.979H10.6886C7.46826 163.979 4.84926 161.36 4.84926 158.14V157.536C4.84926 154.316 7.46826 151.697 10.6886 151.697H69.5558C72.7761 151.697 75.3951 154.316 75.3951 157.536V158.14C75.3951 161.36 72.7761 163.979 69.5558 163.979ZM10.6886 152.489C7.90446 152.489 5.64089 154.752 5.64089 157.536V158.14C5.64089 160.924 7.90446 163.187 10.6886 163.187H69.5558C72.34 163.187 74.6035 160.924 74.6035 158.14V157.536C74.6035 154.752 72.34 152.489 69.5558 152.489H10.6886Z" fill="black"/>
<path d="M57.6796 22.7478L46.2397 42.4163C51.3664 44.7247 58.4192 48.5913 60.7079 51.677L70.3348 34.001C70.114 32.7499 62.8817 16.6213 57.6796 22.7478Z" fill="white"/>
<path d="M60.7128 52.0717C60.5889 52.0717 60.4704 52.0125 60.3951 51.912C58.1853 48.9322 51.3031 45.1284 46.083 42.7769C45.9807 42.7302 45.9035 42.6441 45.8694 42.5364C45.8353 42.4305 45.8479 42.3138 45.9035 42.2168L57.3434 22.5484C57.3542 22.5286 57.3686 22.5089 57.3829 22.4909C58.4977 21.1787 59.7901 20.7102 61.2208 21.098C66.0136 22.3958 70.5569 32.9508 70.731 33.9309C70.7472 34.0188 70.731 34.1103 70.6897 34.1893L61.0628 51.8653C60.9982 51.9838 60.8779 52.061 60.7433 52.0699C60.7343 52.0699 60.7253 52.0699 60.7164 52.0699L60.7128 52.0717ZM46.8064 42.2366C51.7913 44.5145 58.0974 48.0293 60.6482 50.9678L69.9179 33.9452C69.4853 32.5074 65.152 22.981 61.0125 21.8609C59.896 21.5575 58.9123 21.9219 58.0076 22.9756L46.8064 42.2366Z" fill="black"/>
<path d="M59.0338 3.41347C60.8558 1.87151 62.536 1.23605 64.4423 1.29349C66.3505 1.34914 68.282 2.99341 68.0343 4.88541C71.6944 0.823186 77.7078 -0.943147 82.9817 0.494696C86.3834 1.42274 89.6522 3.97172 90.1207 7.46671C90.5192 10.4375 88.7798 13.3689 86.4211 15.216C84.0623 17.0631 81.1544 18.0324 78.3092 18.9677C80.4776 19.3787 81.4559 21.9439 81.2315 24.141C81.0377 26.042 80.0019 28.0022 78.1458 29.1977C74.3798 31.6264 68.7146 32.5096 64.3203 31.6318C60.6099 30.8887 54.81 26.279 54.18 22.0462C53.4602 17.2121 52.0474 14.541 53.9179 9.86312C55.0398 7.05744 57 5.13313 59.0338 3.41167V3.41347Z" fill="black"/>
<path d="M57.6302 24.9696C57.4346 24.9696 57.264 24.8242 57.2389 24.625C57.1779 24.1439 56.8979 23.679 56.4688 23.3487C56.0416 23.0202 55.5192 22.8676 55.04 22.9286C54.8174 22.9574 54.6253 22.8048 54.5966 22.5894C54.5679 22.3722 54.7205 22.1747 54.9359 22.146C55.6234 22.0544 56.3575 22.2663 56.9499 22.7222C57.5441 23.1799 57.9336 23.8369 58.0216 24.5262C58.0485 24.7434 57.8959 24.9409 57.6787 24.9678C57.6626 24.9696 57.6446 24.9714 57.6285 24.9714L57.6302 24.9696Z" fill="black"/>
<path d="M60.0435 21.2973C59.7203 20.4088 59.4547 19.5023 58.8085 18.7573C57.8625 17.6677 56.4013 17.0807 54.9617 17.3446C53.2599 17.6569 51.849 19.0822 51.4344 20.7624C51.0197 22.4426 51.56 24.2987 52.7196 25.5839C53.8792 26.8692 55.6061 27.5872 57.3347 27.6375C57.3652 27.738 57.3993 27.8367 57.4317 27.9373C58.0779 27.1851 58.5805 26.2984 58.9539 25.3757C59.4834 24.0689 59.7778 22.6831 60.0417 21.2973H60.0435Z" fill="white"/>
<path d="M57.4307 28.3318C57.4038 28.3318 57.3768 28.3282 57.3499 28.3228C57.2099 28.2941 57.095 28.1899 57.0519 28.0535L57.0412 28.0176C55.2389 27.8956 53.5677 27.1129 52.4243 25.8474C51.139 24.4239 50.6113 22.4386 51.0475 20.6669C51.5124 18.782 53.0561 17.2903 54.8871 16.9547C56.4183 16.6728 58.0338 17.2652 59.1037 18.4966C59.7176 19.2039 60.0102 20.0296 60.292 20.8284L60.4105 21.1605C60.4338 21.2269 60.441 21.2987 60.4266 21.3687C60.1682 22.7222 59.8684 24.1582 59.3173 25.5225C58.8991 26.5546 58.3641 27.454 57.7287 28.1935C57.6533 28.2815 57.5438 28.3318 57.4289 28.3318H57.4307ZM55.6518 17.6763C55.4454 17.6763 55.2371 17.6942 55.0325 17.7319C53.5247 18.0084 52.2035 19.2936 51.8175 20.8553C51.4424 22.3757 51.9001 24.0864 53.0131 25.3178C54.056 26.4721 55.6751 27.1919 57.3463 27.2404C57.3876 27.2404 57.4271 27.2493 57.463 27.2619C57.8992 26.6731 58.2762 25.991 58.5867 25.2245C59.0983 23.9626 59.3855 22.6091 59.6332 21.3256L59.5489 21.0905C59.2796 20.3276 59.0247 19.6078 58.5077 19.0136C57.7664 18.1574 56.7109 17.6745 55.65 17.6745L55.6518 17.6763Z" fill="black"/>
<path d="M74.9999 15.312C74.4955 13.928 64.9386 16.7139 66.0569 19.6471C67.3709 23.0936 63.8705 23.5908 63.9674 23.7955C65.5902 27.2169 64.9996 32.611 68.6023 33.7706C70.663 34.433 76.3767 31.9881 78.4015 31.2539C78.3603 30.3474 78.2723 29.4391 78.1682 28.5416C77.6961 24.5117 76.3929 19.1229 75.0017 15.312H74.9999Z" fill="white"/>
<path d="M69.5187 30.9095C65.9142 29.7499 65.5947 27.2189 63.972 23.7957C63.875 23.591 63.7943 23.381 63.7045 23.1746C63.6147 23.3236 63.4981 23.46 63.3455 23.5731C62.4839 24.2121 61.2058 23.5498 60.6475 22.6325C60.389 22.2088 60.2095 21.7547 60.0426 21.2952C59.7769 22.681 59.4843 24.0685 58.9548 25.3735C58.5814 26.2962 58.0788 27.183 57.4326 27.9351C58.3373 30.8251 59.6638 33.5806 61.3638 36.0847C62.728 38.0933 64.3759 39.9781 66.4922 41.1665C68.6104 42.3548 72.4375 43.4031 74.6705 42.45C76.9897 41.4591 78.3504 40.1433 78.9841 37.7002C79.3897 36.1331 78.3109 30.7354 78.2355 29.1127C75.5986 29.0588 71.5794 31.5701 69.5187 30.9077V30.9095Z" fill="black"/>
<path d="M57.2175 24.5732C57.0613 24.5732 56.9123 24.4799 56.8495 24.3255C56.4833 23.4118 55.7133 22.6633 54.7888 22.324C54.5842 22.2486 54.4782 22.0224 54.5536 21.816C54.629 21.6113 54.8552 21.5054 55.0616 21.5808C56.1925 21.9955 57.1349 22.911 57.5837 24.0293C57.6645 24.2321 57.5657 24.4619 57.3629 24.5427C57.3144 24.5624 57.2642 24.5714 57.2157 24.5714L57.2175 24.5732Z" fill="black"/>
<path d="M107.716 67.7401C109.884 63.8717 114.139 56.8513 115.718 53.6722C115.718 53.6722 121.301 55.3757 125.509 55.3614C129.716 55.3488 133.57 55.8532 133.917 54.3364C134.263 52.8214 131.317 51.5612 129.151 51.3871C129.151 51.3871 140.347 51.6474 140.09 48.1309C139.835 44.6143 135.234 46.1222 135.234 46.1222C135.234 46.1222 140.539 44.2248 139.243 41.6471C137.948 39.0676 134.044 41.543 134.044 41.543C134.044 41.543 137.046 39.502 135.69 37.7482C134.335 35.9945 128.162 39.9454 123.245 37.8829C123.245 37.8829 129.621 36.2655 129.054 33.8745C128.487 31.4853 123.99 32.8567 119.734 33.4096C115.478 33.9607 109.533 34.0737 103.914 40.9147C98.2955 47.7557 94.587 53.2863 94.587 53.2863C94.587 53.2863 101.064 61.6315 107.716 67.7419V67.7401Z" fill="white"/>
<path d="M107.711 68.1366C107.612 68.1366 107.517 68.1007 107.443 68.0325C100.845 61.9688 94.3359 53.611 94.2713 53.5284C94.1672 53.3938 94.16 53.2071 94.2551 53.0653C94.2928 53.0096 98.0391 47.4413 103.606 40.6632C108.842 34.2871 114.455 33.6319 118.551 33.1526C118.939 33.1078 119.316 33.0629 119.68 33.0162C120.529 32.9067 121.393 32.7631 122.228 32.6231C125.658 32.0523 128.896 31.5138 129.435 33.7827C129.921 35.8291 126.541 37.2544 124.592 37.897C126.893 38.4104 129.384 37.8467 131.447 37.38C133.567 36.9007 135.242 36.5238 135.999 37.5057C136.36 37.9724 136.496 38.4947 136.407 39.0566C136.337 39.5 136.127 39.9218 135.866 40.297C136.57 40.0923 137.358 39.9864 138.065 40.1803C138.744 40.3688 139.257 40.8014 139.593 41.4674C139.891 42.0615 139.92 42.6683 139.677 43.275C139.329 44.1438 138.453 44.8708 137.581 45.4129C138.195 45.4452 138.823 45.587 139.343 45.9353C140.027 46.393 140.41 47.1236 140.482 48.1019C140.523 48.6727 140.327 49.1897 139.9 49.6385C138.514 51.0943 134.753 51.57 132.066 51.7208C132.874 52.0708 133.576 52.5303 133.978 53.076C134.292 53.505 134.405 53.9718 134.301 54.4241C133.956 55.932 131.508 55.8745 128.114 55.7937C127.272 55.774 126.408 55.756 125.509 55.756C121.8 55.7758 117.18 54.5067 115.922 54.1441C114.864 56.2174 112.904 59.5759 111.007 62.8286C109.894 64.7331 108.844 66.5336 108.061 67.9319C108.002 68.0379 107.898 68.1097 107.779 68.1294C107.759 68.133 107.738 68.1348 107.716 68.1348L107.711 68.1366ZM95.0719 53.2681C96.1328 54.6126 101.794 61.6887 107.612 67.1116C108.366 65.7797 109.317 64.148 110.319 62.4319C112.304 59.0302 114.356 55.5137 115.358 53.4979C115.444 53.3237 115.641 53.2376 115.826 53.295C115.882 53.3112 121.361 54.968 125.453 54.968C125.525 54.968 125.597 54.968 125.669 54.968C126.512 54.968 127.333 54.9878 128.128 55.0057C130.799 55.0685 133.325 55.1278 133.526 54.25C133.578 54.0202 133.515 53.7905 133.335 53.5463C132.65 52.6111 130.609 51.9038 129.112 51.7836C128.898 51.7656 128.738 51.5825 128.749 51.3689C128.76 51.1553 128.937 51.0045 129.153 50.9938C131.427 51.0458 137.692 50.8089 139.322 49.0946C139.593 48.8092 139.713 48.504 139.688 48.1593C139.634 47.4252 139.376 46.9118 138.898 46.5923C137.864 45.8994 135.987 46.2889 135.349 46.4971C135.145 46.5653 134.922 46.454 134.852 46.2494C134.782 46.0448 134.89 45.8222 135.093 45.7486C135.981 45.4309 138.405 44.3107 138.938 42.9806C139.094 42.5893 139.076 42.2105 138.882 41.8228C138.649 41.3579 138.311 41.0707 137.852 40.9432C136.387 40.5357 134.269 41.8623 134.249 41.8748C134.066 41.9897 133.825 41.9377 133.707 41.7582C133.588 41.5787 133.637 41.3363 133.815 41.2143C134.267 40.9055 135.472 39.8949 135.624 38.9291C135.68 38.5845 135.597 38.2775 135.373 37.9867C134.922 37.4033 133.393 37.7498 131.621 38.1501C129.083 38.7227 125.927 39.4372 123.087 38.2452C122.931 38.1788 122.832 38.0208 122.847 37.8521C122.859 37.6834 122.98 37.5398 123.143 37.4985C124.699 37.1036 129.054 35.6047 128.666 33.964C128.298 32.4131 125.412 32.8924 122.357 33.4022C121.515 33.5422 120.644 33.6876 119.781 33.7989C119.413 33.8455 119.034 33.8904 118.643 33.9371C114.459 34.4253 109.251 35.0339 104.216 41.164C99.3208 47.1236 95.8437 52.139 95.0737 53.2681H95.0719Z" fill="black"/>
<path d="M128.847 51.5878C128.847 51.5878 128.829 51.5878 128.82 51.5878L125.498 51.3652C125.279 51.3508 125.115 51.1623 125.13 50.9451C125.144 50.7279 125.332 50.57 125.55 50.5771L128.872 50.7997C129.091 50.8141 129.255 51.0026 129.24 51.2198C129.226 51.428 129.052 51.5895 128.845 51.5895L128.847 51.5878Z" fill="black"/>
<path d="M131.019 46.6984C129.33 46.6984 127.641 46.5674 125.969 46.3035C125.754 46.2694 125.607 46.0666 125.641 45.8512C125.675 45.6358 125.876 45.4886 126.093 45.5227C128.917 45.9678 131.789 46.0271 134.627 45.7022C134.844 45.6735 135.04 45.8332 135.065 46.0504C135.09 46.2676 134.934 46.4633 134.717 46.4884C133.489 46.6284 132.254 46.7002 131.021 46.7002L131.019 46.6984Z" fill="black"/>
<path d="M130.029 42.5024C128.505 42.5024 126.979 42.3265 125.505 41.9765C125.294 41.9262 125.163 41.7126 125.213 41.5008C125.263 41.289 125.479 41.1579 125.689 41.2082C128.205 41.8059 130.882 41.8741 133.425 41.4038C133.639 41.3626 133.847 41.5062 133.887 41.7216C133.926 41.937 133.784 42.1416 133.569 42.1829C132.407 42.3983 131.217 42.5042 130.029 42.5042V42.5024Z" fill="black"/>
<path d="M117.971 44.6951C117.886 44.6951 117.802 44.6682 117.728 44.6125C117.556 44.4797 117.524 44.2302 117.658 44.0579C118.308 43.2178 118.692 42.1641 119.064 41.1445L119.234 40.6813C119.908 38.8683 121.672 37.7213 123.065 37.5238C123.286 37.4897 123.482 37.6441 123.512 37.8595C123.543 38.0749 123.392 38.276 123.176 38.3065C122.044 38.4662 120.536 39.4481 119.976 40.956L119.807 41.4137C119.414 42.4908 119.008 43.6037 118.283 44.5407C118.206 44.6413 118.087 44.6933 117.971 44.6933V44.6951Z" fill="black"/>
<path d="M115.054 53.8424C115.032 53.8424 115.009 53.8406 114.987 53.837C114.122 53.6916 113.244 53.688 112.379 53.8316C112.162 53.8693 111.959 53.7221 111.925 53.5067C111.889 53.2913 112.034 53.0885 112.25 53.0526C113.201 52.8946 114.167 52.8964 115.118 53.058C115.334 53.0939 115.479 53.2985 115.441 53.5139C115.409 53.7078 115.242 53.8424 115.052 53.8424H115.054Z" fill="black"/>
<path d="M27.2378 80.3414L72.1573 82.0198L96.2596 49.5705L116 64.9147L92.9998 102.932C87.8121 109.915 79.5404 113.918 70.8488 113.651L19.756 112.075L27.236 80.3432L27.2378 80.3414Z" fill="#D1E1A9"/>
<path d="M72.1906 129.49L74.9873 117.752L82.3865 117.673L87.4109 83.0304C87.4109 83.0304 60.7884 35.7252 49.878 39.0568C24.3917 46.8366 8.48926 134.15 8.48926 134.15C8.48926 134.15 51.8992 134.148 66.3028 134.147C69.1049 134.147 71.539 132.22 72.1888 129.494L72.1906 129.49Z" fill="#D1E1A9"/>
<path d="M72.3506 88.3369L63.5261 62.725L37.6719 70.8853L45.1285 96.3895C47.6973 105.176 55.7463 111.215 64.8957 111.217C77.0663 111.219 93.141 110.493 100.312 110.484C101.621 101.794 105.617 93.819 107.957 89.2793C89.9925 89.019 72.3488 88.3351 72.3488 88.3351L72.3506 88.3369Z" fill="#D1E1A9"/>
<path d="M100.969 89.5197C100.969 89.5197 100.96 89.5197 100.955 89.5197L72.5462 88.5737C72.3829 88.5683 72.2411 88.4642 72.1872 88.3116L63.1617 62.8594C63.0881 62.653 63.1958 62.4286 63.4022 62.355C63.6068 62.2832 63.833 62.3891 63.9066 62.5956L72.8424 87.7946L100.982 88.7316C101.201 88.7388 101.371 88.9219 101.364 89.1391C101.357 89.3527 101.181 89.5215 100.969 89.5215V89.5197Z" fill="black"/>
<path d="M65.178 111.613H65.1331C55.7342 111.613 47.3261 105.305 44.6874 96.2781L37.2971 70.9982C37.2361 70.7882 37.3564 70.5692 37.5664 70.5082C37.7764 70.4472 37.9954 70.5674 38.0564 70.7774L45.4467 96.0573C47.9885 104.751 56.0842 110.823 65.1331 110.823H65.178C72.0854 110.823 80.138 110.513 87.2447 110.238C92.6119 110.032 97.2486 109.852 100.318 109.849C100.535 109.849 100.713 110.026 100.713 110.244C100.713 110.463 100.537 110.639 100.318 110.639C97.2629 110.642 92.6352 110.82 87.2752 111.026C80.1614 111.301 72.0997 111.611 65.178 111.611V111.613Z" fill="black"/>
<path d="M72.5548 88.5738C71.9768 88.5738 66.7784 88.3692 66.5576 88.3602C66.3386 88.3512 66.1698 88.1682 66.1788 87.9492C66.1878 87.7355 66.3619 87.5686 66.5737 87.5686C66.5791 87.5686 66.5845 87.5686 66.5899 87.5686C66.6437 87.5704 71.993 87.7822 72.5566 87.7822C72.7756 87.7822 72.9516 87.9581 72.9516 88.1771C72.9516 88.3961 72.7756 88.572 72.5566 88.572L72.5548 88.5738Z" fill="black"/>
<path d="M138.494 81.3749H115.045L119.012 110.485H134.527L138.494 81.3749Z" fill="black"/>
<path d="M137.016 77.8592L134.537 74.9296H119.022L116.543 77.8592H112.817V81.3757H140.742V77.8592H137.016Z" fill="white"/>
<path d="M140.739 81.772H112.813C112.594 81.772 112.418 81.5942 112.418 81.377V77.8605C112.418 77.6415 112.594 77.4656 112.813 77.4656H116.356L118.717 74.6761C118.792 74.5881 118.902 74.5361 119.018 74.5361H134.535C134.652 74.5361 134.761 74.5881 134.836 74.6761L137.195 77.4656H140.739C140.958 77.4656 141.134 77.6415 141.134 77.8605V81.377C141.134 81.596 140.958 81.772 140.739 81.772ZM113.208 80.9821H140.342V78.2554H137.01C136.894 78.2554 136.784 78.2034 136.709 78.1154L134.35 75.3259H119.201L116.841 78.1154C116.766 78.2034 116.656 78.2554 116.539 78.2554H113.208V80.9821Z" fill="black"/>
<path d="M133.939 90.2343C132.925 89.8268 120.629 89.6509 107.64 89.2758C104.538 96.0647 101.572 103.622 100.307 110.486C110.151 110.034 122.763 109.906 124.021 109.716C126.45 109.346 128.037 105.659 128.037 105.659C132.828 104.676 130.997 100.945 130.997 100.945C134.135 99.2419 131.331 95.8241 131.331 95.8241C135.596 94.5802 136.066 91.0924 133.937 90.2361L133.939 90.2343Z" fill="white"/>
<path d="M100.118 110.64C99.899 110.64 99.7231 110.462 99.7231 110.245C99.7231 110.028 99.899 109.85 100.118 109.85C110.233 109.85 122.727 109.512 123.964 109.324C126.146 108.992 127.661 105.536 127.676 105.502C127.726 105.384 127.834 105.298 127.959 105.271C129.381 104.978 130.307 104.413 130.711 103.589C131.277 102.434 130.65 101.129 130.645 101.117C130.551 100.927 130.625 100.697 130.81 100.595C131.523 100.209 131.928 99.7168 132.05 99.0957C132.329 97.6865 131.038 96.0871 131.025 96.071C130.941 95.9687 130.914 95.8304 130.954 95.703C130.993 95.5755 131.094 95.4768 131.219 95.4409C133.759 94.6995 134.723 93.2079 134.773 92.156C134.809 91.4325 134.45 90.8671 133.788 90.5996C133.106 90.325 125.523 90.1329 117.496 89.9319C114.38 89.8529 111.025 89.7685 107.623 89.6698C107.404 89.6626 107.234 89.4813 107.239 89.2623C107.244 89.0487 107.422 88.8782 107.634 88.8782H107.646C111.048 88.9769 114.399 89.0613 117.516 89.1402C127.866 89.4005 133.303 89.5513 134.082 89.8655C135.046 90.2532 135.614 91.1453 135.561 92.1936C135.5 93.4251 134.513 95.1178 131.962 96.0297C132.395 96.6957 133.07 97.9827 132.822 99.2446C132.673 100.002 132.224 100.629 131.487 101.108C131.682 101.668 131.959 102.831 131.417 103.935C130.919 104.948 129.876 105.642 128.311 105.999C127.938 106.789 126.39 109.749 124.077 110.103C122.82 110.295 110.258 110.638 100.113 110.638L100.118 110.64Z" fill="black"/>
</svg>
