<svg width="228" height="235" viewBox="0 0 228 235" fill="none" xmlns="http://www.w3.org/2000/svg">
<mask id="mask0_1_386" style="mask-type:alpha" maskUnits="userSpaceOnUse" x="0" y="0" width="228" height="235">
<rect width="227.295" height="235" rx="14" transform="matrix(-1 0 0 1 228 0)" fill="#D1E1A9"/>
</mask>
<g mask="url(#mask0_1_386)">
<path d="M108.69 138.157L-100.287 138.157V132.549L108.69 132.549V138.157Z" fill="white"/>
<path d="M81.1388 274.555H132.927C139.859 274.555 144.629 266.315 142.128 258.664L113.022 169.61H59.3319L88.3562 258.418L79.3752 269.727C77.9232 271.555 79.0188 274.555 81.1388 274.555Z" fill="white"/>
<path d="M81.1363 275.006H132.925C135.951 275.006 138.808 273.46 140.763 270.763C143.223 267.371 143.91 262.681 142.551 258.526L113.445 169.472C113.386 169.286 113.213 169.162 113.02 169.162H59.3294C59.1848 169.162 59.0504 169.231 58.9669 169.347C58.8813 169.464 58.8589 169.614 58.9037 169.751L87.8527 258.329L79.0204 269.448C78.1691 270.521 78.0164 272.038 78.6334 273.315C79.1446 274.372 80.0793 275.003 81.1343 275.003L81.1363 275.006ZM112.694 170.06L141.698 258.805C142.969 262.693 142.331 267.071 140.036 270.236C138.226 272.733 135.7 274.107 132.923 274.107H81.1343C80.4194 274.107 79.8024 273.678 79.4399 272.926C79.057 272.132 78.9959 270.922 79.7209 270.006L88.7019 258.697C88.7956 258.579 88.8241 258.422 88.7773 258.28L59.9444 170.058H112.69L112.694 170.06Z" fill="black"/>
<path d="M184.929 140.288L190.181 158.335C194.11 171.831 185.64 185.889 173.58 185.889H98.5589L65.1887 266.791C63.2316 271.536 59.1606 274.546 54.6987 274.546H0.303558C-1.23401 274.546 -1.87549 272.217 -0.631195 271.145L13.9095 258.613L45.7075 170.371C52.2834 152.126 67.4228 140.288 84.1791 140.288H184.925H184.929Z" fill="white"/>
<path d="M0.301651 274.993H54.6968C59.3074 274.993 63.5882 271.84 65.6002 266.961L98.8564 186.336H173.576C178.808 186.336 183.591 183.8 187.045 179.198C191.41 173.383 192.739 165.537 190.607 158.207L185.355 140.16C185.3 139.968 185.123 139.836 184.925 139.836H84.1793C67.2029 139.836 51.9353 151.762 45.2861 170.217L13.5267 258.346L-0.924332 270.802C-1.80206 271.559 -1.87947 272.745 -1.56787 273.584C-1.24611 274.453 -0.527206 274.993 0.305725 274.993H0.301651ZM184.587 140.734L189.746 158.458C191.801 165.518 190.524 173.07 186.328 178.66C183.048 183.03 178.518 185.44 173.576 185.44H98.555C98.3737 185.44 98.2088 185.549 98.1395 185.716L64.7693 266.619C62.8958 271.16 58.9408 274.097 54.6947 274.097H0.299606C-0.374481 274.097 -0.659576 273.465 -0.732895 273.272C-0.936539 272.724 -0.895828 271.958 -0.343933 271.482L14.1967 258.949C14.2558 258.898 14.3006 258.833 14.325 258.762L46.1251 170.52C52.646 152.426 67.5817 140.732 84.1752 140.732H184.585L184.587 140.734Z" fill="black"/>
<path d="M96.4089 265.847C96.5779 265.847 96.7408 265.749 96.8162 265.586L131.535 190.105C131.638 189.879 131.541 189.614 131.315 189.51C131.089 189.406 130.824 189.506 130.72 189.73L96.0016 265.211C95.8977 265.437 95.9954 265.702 96.2215 265.806C96.2826 265.834 96.3457 265.847 96.4089 265.847Z" fill="black"/>
<path d="M216.179 265.847C216.242 265.847 216.305 265.835 216.366 265.806C216.592 265.702 216.69 265.436 216.586 265.212L181.868 189.731C181.764 189.504 181.499 189.407 181.273 189.511C181.047 189.614 180.949 189.881 181.053 190.105L215.771 265.586C215.847 265.751 216.01 265.847 216.179 265.847Z" fill="black"/>
<path d="M189.67 192.88H122.883C119.472 192.88 116.708 190.116 116.708 186.705V186.019C116.708 182.609 119.472 179.844 122.883 179.844H189.67C193.08 179.844 195.844 182.609 195.844 186.019V186.705C195.844 190.116 193.08 192.88 189.67 192.88Z" fill="white"/>
<path d="M122.883 193.327H189.668C193.321 193.327 196.293 190.355 196.293 186.702V186.018C196.293 182.364 193.321 179.393 189.668 179.393H122.883C119.229 179.393 116.258 182.364 116.258 186.018V186.702C116.258 190.355 119.229 193.327 122.883 193.327ZM189.668 180.291C192.827 180.291 195.395 182.859 195.395 186.018V186.702C195.395 189.86 192.827 192.428 189.668 192.428H122.883C119.724 192.428 117.156 189.86 117.156 186.702V186.018C117.156 182.859 119.724 180.291 122.883 180.291H189.668Z" fill="black"/>
<path d="M136.366 33.0999L149.344 55.4139C143.528 58.0328 135.527 62.4195 132.93 65.9202L122.008 45.8667C122.259 44.4473 130.464 26.1493 136.366 33.0999Z" fill="white"/>
<path d="M132.923 66.3679C133.064 66.3679 133.198 66.3007 133.284 66.1866C135.791 62.806 143.599 58.4907 149.521 55.8228C149.637 55.7699 149.724 55.6721 149.763 55.5499C149.802 55.4298 149.788 55.2974 149.724 55.1874L136.746 32.8734C136.734 32.851 136.717 32.8286 136.701 32.8083C135.436 31.3196 133.97 30.7881 132.347 31.2279C126.909 32.7003 121.755 44.675 121.558 45.7869C121.539 45.8867 121.558 45.9906 121.604 46.0802L132.526 66.1337C132.599 66.2681 132.736 66.3557 132.889 66.3658C132.899 66.3658 132.909 66.3658 132.919 66.3658L132.923 66.3679ZM148.7 55.2098C143.045 57.7942 135.89 61.7817 132.997 65.1154L122.48 45.8032C122.971 44.172 127.887 33.3642 132.583 32.0935C133.85 31.7493 134.966 32.1627 135.992 33.3581L148.7 55.2098Z" fill="black"/>
<path d="M134.83 11.1647C132.763 9.41531 130.857 8.69438 128.694 8.75955C126.529 8.82268 124.338 10.6881 124.619 12.8346C120.467 8.22598 113.644 6.22207 107.661 7.85331C103.802 8.90619 100.093 11.798 99.5618 15.7631C99.1097 19.1335 101.083 22.4591 103.759 24.5547C106.435 26.6503 109.734 27.75 112.962 28.811C110.502 29.2774 109.392 32.1875 109.647 34.6802C109.867 36.8369 111.042 39.0607 113.147 40.4171C117.42 43.1724 123.847 44.1744 128.833 43.1786C133.042 42.3354 139.622 37.1057 140.337 32.3036C141.153 26.8193 142.756 23.789 140.634 18.4818C139.361 15.2988 137.137 13.1156 134.83 11.1626V11.1647Z" fill="black"/>
<path d="M136.418 35.6204C136.64 35.6204 136.834 35.4555 136.862 35.2294C136.931 34.6836 137.249 34.1562 137.736 33.7815C138.22 33.4088 138.813 33.2357 139.357 33.3049C139.609 33.3375 139.827 33.1644 139.86 32.92C139.892 32.6736 139.719 32.4496 139.475 32.417C138.695 32.3131 137.862 32.5534 137.19 33.0707C136.516 33.59 136.074 34.3354 135.974 35.1174C135.944 35.3638 136.117 35.5878 136.363 35.6184C136.381 35.6204 136.402 35.6225 136.42 35.6225L136.418 35.6204Z" fill="black"/>
<path d="M133.686 31.4549C134.053 30.4468 134.354 29.4184 135.087 28.5732C136.16 27.3371 137.818 26.6712 139.451 26.9705C141.382 27.3249 142.983 28.9419 143.453 30.848C143.924 32.7542 143.311 34.8599 141.995 36.3181C140.679 37.7762 138.72 38.5908 136.759 38.6478C136.724 38.7619 136.686 38.8739 136.649 38.9879C135.916 38.1347 135.346 37.1286 134.922 36.0818C134.321 34.5993 133.987 33.0271 133.688 31.4549H133.686Z" fill="white"/>
<path d="M136.649 39.4347C136.68 39.4347 136.71 39.4306 136.741 39.4245C136.9 39.3919 137.03 39.2738 137.079 39.119L137.091 39.0783C139.136 38.9398 141.032 38.0519 142.329 36.6161C143.787 35.0012 144.386 32.7488 143.891 30.7388C143.364 28.6005 141.612 26.9081 139.535 26.5273C137.798 26.2076 135.965 26.8796 134.751 28.2766C134.055 29.079 133.723 30.0158 133.403 30.9221L133.269 31.2988C133.242 31.3742 133.234 31.4556 133.25 31.5351C133.544 33.0706 133.884 34.6998 134.509 36.2475C134.983 37.4185 135.59 38.4388 136.311 39.2779C136.397 39.3777 136.521 39.4347 136.651 39.4347H136.649ZM138.667 27.346C138.902 27.346 139.138 27.3663 139.37 27.4091C141.081 27.7227 142.58 29.1809 143.017 30.9526C143.443 32.6775 142.924 34.6183 141.661 36.0154C140.478 37.3248 138.641 38.1415 136.745 38.1965C136.698 38.1965 136.653 38.2067 136.613 38.2209C136.118 37.5529 135.69 36.7791 135.338 35.9095C134.757 34.4778 134.431 32.9423 134.15 31.4862L134.246 31.2194C134.552 30.3539 134.841 29.5372 135.427 28.8632C136.268 27.8917 137.466 27.3439 138.669 27.3439L138.667 27.346Z" fill="black"/>
<path d="M116.717 24.6639C117.289 23.0937 128.131 26.2544 126.863 29.582C125.372 33.4921 129.343 34.0562 129.233 34.2884C127.392 38.17 128.062 44.2897 123.975 45.6053C121.637 46.3567 115.155 43.583 112.858 42.7501C112.904 41.7216 113.004 40.6912 113.122 39.6729C113.658 35.101 115.136 28.9874 116.715 24.6639H116.717Z" fill="white"/>
<path d="M122.939 42.3593C127.028 41.0438 127.391 38.1723 129.232 34.2887C129.342 34.0565 129.433 33.8182 129.535 33.584C129.637 33.7531 129.769 33.9078 129.942 34.0361C130.92 34.7611 132.37 34.0097 133.003 32.969C133.296 32.4884 133.5 31.9732 133.69 31.4518C133.991 33.024 134.323 34.5982 134.924 36.0788C135.347 37.1255 135.917 38.1316 136.651 38.9849C135.624 42.2636 134.119 45.3897 132.191 48.2306C130.643 50.5094 128.773 52.6478 126.372 53.9959C123.969 55.3441 119.627 56.5334 117.094 55.452C114.463 54.3279 112.919 52.8351 112.2 50.0634C111.74 48.2856 112.964 42.1618 113.05 40.3208C116.041 40.2597 120.601 43.1088 122.939 42.3573V42.3593Z" fill="black"/>
<path d="M136.889 35.1705C137.066 35.1705 137.235 35.0646 137.307 34.8895C137.722 33.8529 138.596 33.0036 139.645 32.6187C139.877 32.5332 139.997 32.2766 139.911 32.0424C139.826 31.8102 139.569 31.6901 139.335 31.7756C138.052 32.2461 136.983 33.2847 136.474 34.5534C136.382 34.7835 136.494 35.0442 136.724 35.1359C136.779 35.1583 136.836 35.1685 136.891 35.1685L136.889 35.1705Z" fill="black"/>
<path d="M79.597 84.1426C77.1369 79.7539 72.3104 71.7892 70.5182 68.1825C70.5182 68.1825 64.1847 70.1151 59.4111 70.0988C54.6376 70.0846 50.2652 70.6569 49.8721 68.936C49.4791 67.2172 52.821 65.7876 55.2791 65.59C55.2791 65.59 42.5774 65.8853 42.8686 61.8958C43.1578 57.9063 48.3773 59.617 48.3773 59.617C48.3773 59.617 42.3595 57.4644 43.8298 54.5399C45.2981 51.6135 49.7276 54.4218 49.7276 54.4218C49.7276 54.4218 46.3225 52.1063 47.8601 50.1166C49.3976 48.127 56.4012 52.6093 61.9792 50.2694C61.9792 50.2694 54.7455 48.4345 55.389 45.7219C56.0326 43.0113 61.134 44.5672 65.9626 45.1944C70.7911 45.8196 77.5361 45.9479 83.9103 53.709C90.2846 61.4702 94.492 67.7446 94.492 67.7446C94.492 67.7446 87.1443 77.2124 79.597 84.1446V84.1426Z" fill="white"/>
<path d="M79.6018 84.5916C79.7138 84.5916 79.8218 84.5509 79.9053 84.4735C87.3915 77.5942 94.7758 68.1122 94.8492 68.0185C94.9673 67.8658 94.9754 67.654 94.8675 67.4931C94.8247 67.4299 90.5745 61.1127 84.2593 53.4228C78.3188 46.1892 71.9507 45.4458 67.3034 44.9021C66.8635 44.8512 66.4358 44.8003 66.0224 44.7473C65.0591 44.6231 64.0796 44.4602 63.1326 44.3013C59.2408 43.6537 55.567 43.0428 54.956 45.6169C54.4041 47.9385 58.2389 49.5555 60.4505 50.2846C57.8397 50.867 55.013 50.2276 52.6731 49.6981C50.268 49.1543 48.3679 48.7267 47.5085 49.8406C47.0992 50.3701 46.9444 50.9627 47.0462 51.6002C47.1256 52.1032 47.3639 52.5818 47.6592 53.0074C46.8609 52.7752 45.9669 52.6551 45.1645 52.875C44.3947 53.0889 43.8123 53.5797 43.4314 54.3352C43.0934 55.0093 43.0608 55.6976 43.3357 56.386C43.7308 57.3716 44.7246 58.1964 45.7144 58.8114C45.0179 58.8481 44.3051 59.009 43.7145 59.4041C42.9386 59.9234 42.5048 60.7522 42.4234 61.8621C42.3765 62.5097 42.5985 63.0962 43.0832 63.6054C44.6554 65.257 48.9219 65.7967 51.9705 65.9677C51.0541 66.3649 50.2578 66.8862 49.8016 67.5053C49.4452 67.992 49.3169 68.5215 49.435 69.0347C49.8261 70.7454 52.6039 70.6802 56.4549 70.5886C57.41 70.5662 58.3896 70.5458 59.4099 70.5458C63.6173 70.5682 68.8593 69.1284 70.2868 68.717C71.4863 71.0692 73.7102 74.8795 75.8628 78.5696C77.1254 80.7304 78.3168 82.773 79.2047 84.3594C79.2719 84.4796 79.39 84.561 79.5244 84.5834C79.5468 84.5875 79.5713 84.5896 79.5957 84.5896L79.6018 84.5916ZM93.9409 67.7232C92.7373 69.2485 86.3142 77.2765 79.7138 83.4287C78.8585 81.9177 77.7792 80.0665 76.6428 78.1196C74.3904 74.2604 72.0627 70.2709 70.9263 67.9839C70.8286 67.7863 70.6045 67.6886 70.3948 67.7537C70.3317 67.7721 64.1162 69.6518 59.473 69.6518C59.3915 69.6518 59.3101 69.6518 59.2286 69.6518C58.2715 69.6518 57.3408 69.6742 56.4386 69.6945C53.4083 69.7658 50.5429 69.833 50.3148 68.8372C50.2558 68.5765 50.327 68.3158 50.5307 68.0389C51.3086 66.9778 53.6241 66.1755 55.3226 66.039C55.5649 66.0186 55.7462 65.8109 55.734 65.5686C55.7218 65.3262 55.5201 65.1552 55.2758 65.1429C52.6955 65.202 45.5881 64.9332 43.7389 62.9883C43.4314 62.6645 43.295 62.3183 43.3235 61.9273C43.3846 61.0944 43.6778 60.5119 44.2196 60.1494C45.3926 59.3633 47.5228 59.8053 48.2457 60.0415C48.4779 60.1189 48.7304 59.9926 48.8098 59.7604C48.8893 59.5283 48.7671 59.2758 48.537 59.1923C47.5289 58.8318 44.7796 57.561 44.1748 56.052C43.9976 55.608 44.018 55.1783 44.2379 54.7384C44.5026 54.211 44.8855 53.8851 45.4069 53.7405C47.0686 53.2782 49.4717 54.7832 49.4941 54.7975C49.7018 54.9278 49.9747 54.8688 50.1091 54.6651C50.2435 54.4615 50.1886 54.1865 49.987 54.048C49.4738 53.6978 48.1072 52.5512 47.9341 51.4556C47.871 51.0646 47.9647 50.7163 48.2193 50.3864C48.7304 49.7245 50.4655 50.1176 52.4756 50.5717C55.3552 51.2214 58.9354 52.0319 62.1571 50.6797C62.3343 50.6043 62.4463 50.4251 62.43 50.2337C62.4158 50.0422 62.2793 49.8793 62.094 49.8325C60.3283 49.3844 55.3878 47.684 55.8276 45.8226C56.2451 44.063 59.5198 44.6068 62.986 45.1852C63.9411 45.344 64.9288 45.509 65.9084 45.6352C66.3258 45.6882 66.7556 45.7391 67.1995 45.7921C71.9466 46.346 77.8545 47.0364 83.5669 53.991C89.1205 60.7522 93.0652 66.4422 93.9388 67.7232H93.9409Z" fill="black"/>
<path d="M55.6163 65.8162C55.6163 65.8162 55.6367 65.8162 55.6469 65.8162L59.4164 65.5637C59.6649 65.5474 59.8502 65.3336 59.8339 65.0871C59.8176 64.8407 59.6038 64.6615 59.3574 64.6697L55.5878 64.9222C55.3394 64.9385 55.154 65.1523 55.1703 65.3987C55.1866 65.635 55.3842 65.8182 55.6184 65.8182L55.6163 65.8162Z" fill="black"/>
<path d="M53.1599 60.2697C55.0763 60.2697 56.9926 60.121 58.8886 59.8217C59.133 59.783 59.3 59.5528 59.2613 59.3085C59.2226 59.0641 58.9945 58.8971 58.7481 58.9358C55.5447 59.4408 52.2863 59.508 49.0665 59.1394C48.8201 59.1068 48.5981 59.2881 48.5696 59.5345C48.5411 59.7809 48.7183 60.0029 48.9647 60.0314C50.3577 60.1903 51.7588 60.2717 53.1579 60.2717L53.1599 60.2697Z" fill="black"/>
<path d="M54.276 55.5086C56.005 55.5086 57.7361 55.309 59.408 54.9119C59.6483 54.8549 59.797 54.6125 59.74 54.3722C59.683 54.1319 59.4386 53.9833 59.2003 54.0403C56.3451 54.7184 53.3087 54.7958 50.423 54.2623C50.1806 54.2154 49.9444 54.3783 49.8996 54.6227C49.8548 54.8671 50.0157 55.0993 50.26 55.1461C51.5777 55.3905 52.9279 55.5106 54.276 55.5106V55.5086Z" fill="black"/>
<path d="M67.9563 57.9971C68.052 57.9971 68.1477 57.9665 68.2312 57.9034C68.4267 57.7527 68.4634 57.4696 68.3107 57.2741C67.5734 56.321 67.1376 55.1256 66.7161 53.9689L66.5226 53.4435C65.7589 51.3866 63.757 50.0852 62.1767 49.8612C61.9262 49.8225 61.7042 49.9977 61.6696 50.2421C61.635 50.4864 61.8061 50.7145 62.0504 50.7491C63.3355 50.9304 65.0461 52.0444 65.6815 53.755L65.873 54.2743C66.319 55.4962 66.7792 56.7589 67.602 57.8219C67.6895 57.936 67.8239 57.995 67.9563 57.995V57.9971Z" fill="black"/>
<path d="M71.2676 68.3742C71.292 68.3742 71.3185 68.3722 71.3429 68.3681C72.3245 68.2031 73.3204 68.1991 74.302 68.362C74.5484 68.4047 74.7785 68.2377 74.8172 67.9934C74.8579 67.749 74.693 67.5189 74.4486 67.4781C73.3693 67.2989 72.2736 67.301 71.1943 67.4842C70.9499 67.525 70.7849 67.7571 70.8277 68.0015C70.8644 68.2215 71.0538 68.3742 71.2696 68.3742H71.2676Z" fill="black"/>
<path d="M170.889 98.4393L119.928 100.343L92.5837 63.5295L70.1882 80.9376L96.2819 124.069C102.167 131.991 111.552 136.532 121.412 136.229L179.378 134.441L170.891 98.4413L170.889 98.4393Z" fill="#D1E1A9"/>
<path d="M119.896 154.199L116.723 140.882L108.328 140.792L102.628 101.49C102.628 101.49 132.832 47.8217 145.21 51.6015C174.124 60.4277 192.165 159.485 192.165 159.485C192.165 159.485 142.916 159.483 126.576 159.481C123.397 159.481 120.635 157.296 119.898 154.203L119.896 154.199Z" fill="#D1E1A9"/>
<path d="M119.711 107.51L129.723 78.453L159.054 87.7109L150.595 116.646C147.68 126.614 138.549 133.465 128.169 133.467C114.361 133.469 96.1243 132.646 87.9884 132.636C86.5038 122.778 81.9705 113.729 79.3149 108.579C99.6963 108.284 119.713 107.508 119.713 107.508L119.711 107.51Z" fill="#D1E1A9"/>
<path d="M87.2417 108.852C87.2417 108.852 87.2519 108.852 87.258 108.852L119.488 107.779C119.673 107.772 119.834 107.654 119.895 107.481L130.135 78.6056C130.218 78.3714 130.096 78.1168 129.862 78.0333C129.63 77.9518 129.373 78.072 129.289 78.3062L119.152 106.895L87.2274 107.958C86.979 107.966 86.7855 108.174 86.7937 108.42C86.8018 108.662 87.0014 108.854 87.2417 108.854V108.852Z" fill="black"/>
<path d="M127.849 133.917H127.9C138.563 133.917 148.102 126.76 151.096 116.519L159.48 87.8386C159.549 87.6004 159.413 87.3519 159.175 87.2827C158.937 87.2134 158.688 87.3499 158.619 87.5881L150.235 116.268C147.351 126.131 138.166 133.021 127.9 133.021H127.849C120.013 133.021 110.877 132.668 102.814 132.357C96.7253 132.122 91.465 131.919 87.9826 131.915C87.7361 131.915 87.5345 132.116 87.5345 132.363C87.5345 132.611 87.7341 132.811 87.9826 132.811C91.4487 132.815 96.6988 133.017 102.78 133.251C110.851 133.562 119.996 133.915 127.849 133.915V133.917Z" fill="black"/>
<path d="M119.484 107.778C120.14 107.778 126.038 107.546 126.288 107.536C126.537 107.526 126.728 107.318 126.718 107.07C126.708 106.827 126.51 106.638 126.27 106.638C126.264 106.638 126.258 106.638 126.252 106.638C126.191 106.64 120.122 106.88 119.482 106.88C119.234 106.88 119.034 107.08 119.034 107.328C119.034 107.577 119.234 107.776 119.482 107.776L119.484 107.778Z" fill="black"/>
<path d="M44.6764 99.6115H71.2793L66.7786 132.638H49.177L44.6764 99.6115Z" fill="black"/>
<path d="M46.3495 95.6224L49.1619 92.2988H66.7635L69.5759 95.6224H73.8037V99.6119H42.1217V95.6224H46.3495Z" fill="white"/>
<path d="M42.1253 100.061H73.8072C74.0557 100.061 74.2552 99.8597 74.2552 99.6133V95.6238C74.2552 95.3754 74.0557 95.1758 73.8072 95.1758H69.7871L67.1091 92.0111C67.0236 91.9113 66.8994 91.8522 66.767 91.8522H49.1634C49.0311 91.8522 48.9068 91.9113 48.8213 92.0111L46.1453 95.1758H42.1253C41.8768 95.1758 41.6772 95.3754 41.6772 95.6238V99.6133C41.6772 99.8618 41.8768 100.061 42.1253 100.061ZM73.3592 99.1653H42.5753V96.0719H46.3551C46.4875 96.0719 46.6117 96.0128 46.6972 95.913L49.3732 92.7483H66.5593L69.2373 95.913C69.3228 96.0128 69.447 96.0719 69.5794 96.0719H73.3592V99.1653Z" fill="black"/>
<path d="M49.8388 109.661C50.9894 109.199 64.9395 108.999 79.6757 108.574C83.1947 116.276 86.559 124.85 87.9948 132.637C76.8266 132.124 62.5181 131.979 61.0905 131.764C58.3351 131.344 56.5348 127.161 56.5348 127.161C51.0994 126.045 53.1766 121.813 53.1766 121.813C49.6168 119.881 52.7978 116.003 52.7978 116.003C47.9591 114.592 47.4255 110.635 49.8408 109.663L49.8388 109.661Z" fill="white"/>
<path d="M88.2089 132.812C88.4573 132.812 88.6569 132.61 88.6569 132.364C88.6569 132.117 88.4573 131.916 88.2089 131.916C76.7332 131.916 62.5591 131.533 61.1559 131.319C58.6795 130.942 56.9607 127.022 56.9444 126.983C56.8874 126.849 56.7652 126.751 56.6227 126.721C55.0097 126.389 53.9589 125.747 53.5007 124.812C52.8592 123.503 53.5699 122.022 53.576 122.008C53.6819 121.792 53.5984 121.532 53.3887 121.416C52.5802 120.978 52.1199 120.42 51.9814 119.715C51.6658 118.116 53.1301 116.302 53.1443 116.284C53.24 116.167 53.2706 116.011 53.2258 115.866C53.181 115.722 53.0669 115.609 52.9243 115.569C50.0427 114.728 48.9491 113.035 48.8921 111.842C48.8513 111.021 49.2586 110.38 50.0101 110.076C50.784 109.765 59.3862 109.547 68.4935 109.319C72.0288 109.229 75.8351 109.133 79.6943 109.021C79.9427 109.013 80.1362 108.808 80.1301 108.559C80.124 108.317 79.9223 108.123 79.682 108.123H79.6678C75.8086 108.235 72.0064 108.331 68.4711 108.421C56.7286 108.716 50.56 108.887 49.6761 109.243C48.5825 109.683 47.939 110.695 47.998 111.885C48.0673 113.282 49.1874 115.202 52.0813 116.237C51.5905 116.992 50.8247 118.452 51.1058 119.884C51.2748 120.744 51.7839 121.454 52.6209 121.998C52.3989 122.633 52.0853 123.953 52.7003 125.206C53.2645 126.354 54.4477 127.142 56.2235 127.547C56.6471 128.444 58.4026 131.802 61.0276 132.203C62.4532 132.421 76.7047 132.81 88.215 132.81L88.2089 132.812Z" fill="black"/>
</g>
</svg>
